<?xml version="1.0" encoding="UTF-8"?>
<svg id="Layer_1" data-name="Layer 1" xmlns="http://www.w3.org/2000/svg" viewBox="0 0 1288.75 276.22">
  <defs>
    <style>
      .cls-2 {
        fill: #2a0b42;
      }
    </style>
  </defs>
  <rect class="cls-1" width="1288.75" height="276.22" fill="none"/>
  <path class="cls-2" d="m193.91,146.18v3.66c0,9.77,4.88,14.66,14.66,14.66h73.28v21.98h-73.28c-29.31,0-43.97-12.21-43.97-36.64v-29.31c0-24.43,14.66-36.64,43.97-36.64h73.28l.07,21.98h-73.35c-9.77,0-14.66,4.89-14.66,14.66v3.66h87.94v21.98h-87.94Z"/>
  <path class="cls-2" d="m342.81,135.19l-54.96-51.3h36.64l36.64,34.22,36.64-34.22h36.64l-54.96,51.3,84.27,80.61h-36.64l-65.95-63.53-36.64,34.22h-36.64l54.96-51.3Z"/>
  <path class="cls-2" d="m527.01,124.2c7.33,0,10.99-2.44,10.99-7.33v-3.66c0-4.88-3.66-7.33-10.99-7.33h-82.6l.07-21.98h82.52c26.87,0,40.3,9.77,40.3,29.31v3.66c0,19.54-13.44,29.31-40.3,29.31h-53.28v40.3h-29.31v-62.29h82.6Z"/>
  <path class="cls-2" d="m605.46,149.85c0,9.77,4.88,14.66,14.66,14.66h58.27v21.98h-58.27c-29.31,0-43.97-12.21-43.97-36.64v-65.95h29.31v65.95Z"/>
  <path class="cls-2" d="m732.69,83.89h43.97c29.31,0,43.97,12.21,43.97,36.64v36.64c0,19.54-14.66,29.31-43.97,29.31h-43.97c-29.31,0-43.97-12.21-43.97-36.64v-29.31c0-24.43,14.66-36.64,43.97-36.64Zm43.97,21.98h-43.97c-9.77,0-14.66,4.89-14.66,14.66v29.31c0,9.77,4.88,14.66,14.66,14.66h43.97c9.77,0,14.66-4.88,14.66-14.66v-29.31c0-9.77-4.89-14.66-14.66-14.66Z"/>
  <path class="cls-2" d="m925.55,146.18h-62.29v40.3h-29.31v-62.29h91.6c7.33,0,10.99-2.44,10.99-7.33v-3.66c0-4.88-3.66-7.33-10.99-7.33h-91.6l.07-21.98h91.53c26.87,0,40.3,9.77,40.3,29.31v3.66c0,9.43-3.13,16.59-9.38,21.47,8.6,10.36,14.17,26.41,16.71,48.15h-29.31c-4.89-26.87-10.99-40.3-18.32-40.3Z"/>
  <path class="cls-2" d="m983.7,185.48l-.34.67h42.06l-6.2-12.34h-16.57c-8.03,0-15.37,4.52-18.96,11.67Z"/>
  <polygon class="cls-2" points="1037.99 173.81 1031.8 186.15 1073.86 186.15 1067.67 173.81 1037.99 173.81"/>
  <path class="cls-2" d="m1086.26,173.81l-6.2,12.34h42.06l-.34-.67c-3.59-7.15-10.93-11.67-18.96-11.67h-16.57Z"/>
  <path class="cls-2" d="m994.2,164.5l32.98-65.95c4.88-9.77,12.21-14.66,21.98-14.66h7.33c9.77,0,17.1,4.89,21.98,14.66l32.98,65.95m0,0h-117.25m76.4-19.74l-17.78-35.56-17.78,35.56h35.56Z"/>
</svg>