<?xml version="1.0" encoding="UTF-8"?>
<svg id="Layer_1" data-name="Layer 1" xmlns="http://www.w3.org/2000/svg" viewBox="0 0 243.09 276.22">
  <defs>
    <style>
      .cls-1 {
        fill: #dad7db;
      }

      .cls-2 {
        fill: #2a0b42;
      }
    </style>
  </defs>
  <rect class="cls-1" width="243.09" height="276.22"/>
  <path class="cls-2" d="m63.15,167.23l32.9-65.52c4.87-9.71,12.18-14.56,21.93-14.56h7.31c9.75,0,17.06,4.85,21.93,14.56l32.9,65.52m0,0H63.15m73.1-21.84l-14.62-29.12-14.62,29.12h29.24Z"/>
  <path class="cls-2" d="m52.5,188.4l-.34.67h42.06l-6.2-12.34h-16.57c-8.03,0-15.37,4.52-18.96,11.67Z"/>
  <polygon class="cls-2" points="106.8 176.73 100.6 189.07 142.66 189.07 136.47 176.73 106.8 176.73"/>
  <path class="cls-2" d="m155.06,176.73l-6.2,12.34h42.06l-.34-.67c-3.59-7.15-10.93-11.67-18.96-11.67h-16.57Z"/>
</svg>