<?xml version="1.0" encoding="UTF-8"?>
<svg id="Layer_1" data-name="Layer 1" xmlns="http://www.w3.org/2000/svg" viewBox="0 0 238.1 276.22">
  <defs>
    <style>
      .cls-1 {
        fill: #d9d6da;
      }
    </style>
  </defs>
  <path class="cls-1" d="m50.01,188.57l-.34.67h42.06l-6.2-12.34h-16.57c-8.03,0-15.37,4.52-18.96,11.67Z"/>
  <polygon class="cls-1" points="104.3 176.9 98.11 189.24 140.17 189.24 133.97 176.9 104.3 176.9"/>
  <path class="cls-1" d="m152.56,176.9l-6.2,12.34h42.06l-.34-.67c-3.59-7.15-10.93-11.67-18.96-11.67h-16.57Z"/>
  <path class="cls-1" d="m60.51,167.59l32.98-65.95c4.88-9.77,12.21-14.66,21.98-14.66h7.33c9.77,0,17.1,4.89,21.98,14.66l32.98,65.95m0,0H60.51m76.4-19.74l-17.78-35.56-17.78,35.56h35.56Z"/>
</svg>